<svg xmlns="http://www.w3.org/2000/svg" width="960" height="495" viewBox="0 0 960 495" role="img" aria-label="Featured Systems Tracks">
<style>
  :root { color-scheme: dark; }
  .bg { fill: #07111f; }
  .panel { fill: #0b1424; stroke: #1e293b; }
  .card { fill: #0f172a; }
  .lane-hdr { font: 700 11px ui-monospace,SFMono-Regular,Menlo,monospace; letter-spacing: 2px; }
  .lane-cv { fill: #38bdf8; }
  .lane-rag { fill: #8b5cf6; }
  .project-title { font: 700 13px ui-monospace,SFMono-Regular,Menlo,monospace; fill: #e5eefb; letter-spacing: .3px; }
  .meta { font: 600 11px ui-monospace,SFMono-Regular,Menlo,monospace; fill: #2dd4bf; }
  .desc { font: 500 11.5px -apple-system,BlinkMacSystemFont,"Segoe UI",sans-serif; fill: #9fb3c8; }
  .link { font: 500 10px ui-monospace,SFMono-Regular,Menlo,monospace; fill: #627d98; }
</style>
<rect width="960" height="495" rx="18" class="bg"/>
<rect x="14" y="14" width="932" height="467" rx="14" class="panel"/>
<!-- CV Lane Header -->
<g transform="translate(24 44)">
  <circle cx="6" cy="-4" r="4.5" fill="#38bdf8"/>
  <text x="18" y="0" class="lane-hdr lane-cv">TRACK 01 // COMPUTER VISION &amp; OCR SYSTEMS</text>
</g>
<!-- RAG Lane Header -->
<g transform="translate(490 44)">
  <circle cx="6" cy="-4" r="4.5" fill="#8b5cf6"/>
  <text x="18" y="0" class="lane-hdr lane-rag">TRACK 02 // AGENTIC-RAG &amp; RESEARCH SYSTEMS</text>
</g>
<g transform="translate(24 72)">
    <rect width="446" height="122" rx="12" class="card" stroke="#1e293b"/>
    <line x1="0" y1="14" x2="0" y2="108" stroke="#38bdf8" stroke-width="3.5" stroke-linecap="round"/>
    <text x="20" y="28" class="project-title">METER READING ENGINE V2</text>
    <rect x="356" y="14" width="74" height="18" rx="9" fill="#38bdf822" stroke="#38bdf855"/>
    <text x="393" y="27" text-anchor="middle" font-size="9" font-weight="700" fill="#38bdf8">CV / OCR</text>
    <text x="20" y="50" class="meta">Python · ★ 0</text>
    <text x="20" y="75" class="desc">Production LCD meter OCR pipeline with explicit quality gat…</text>
    <text x="20" y="100" class="link">github.com/KwanFam26022005/meter-reading-engine-v2</text>
  </g>
<g transform="translate(24 208)">
    <rect width="446" height="122" rx="12" class="card" stroke="#1e293b"/>
    <line x1="0" y1="14" x2="0" y2="108" stroke="#38bdf8" stroke-width="3.5" stroke-linecap="round"/>
    <text x="20" y="28" class="project-title">METER READING INFERENCE SERVICE</text>
    <rect x="356" y="14" width="74" height="18" rx="9" fill="#38bdf822" stroke="#38bdf855"/>
    <text x="393" y="27" text-anchor="middle" font-size="9" font-weight="700" fill="#38bdf8">CV / OCR</text>
    <text x="20" y="50" class="meta">Python · ★ 0</text>
    <text x="20" y="75" class="desc">FastAPI inference microservice with revision verification a…</text>
    <text x="20" y="100" class="link">github.com/KwanFam26022005/meter-reading-inference-service</text>
  </g>
<g transform="translate(24 344)">
    <rect width="446" height="122" rx="12" class="card" stroke="#1e293b"/>
    <line x1="0" y1="14" x2="0" y2="108" stroke="#38bdf8" stroke-width="3.5" stroke-linecap="round"/>
    <text x="20" y="28" class="project-title">METER READING PIPELINE VISUALIZER</text>
    <rect x="356" y="14" width="74" height="18" rx="9" fill="#38bdf822" stroke="#38bdf855"/>
    <text x="393" y="27" text-anchor="middle" font-size="9" font-weight="700" fill="#38bdf8">CV / OCR</text>
    <text x="20" y="50" class="meta">TypeScript · ★ 0</text>
    <text x="20" y="75" class="desc">Visual telemetry and interactive stage inspector for meter-…</text>
    <text x="20" y="100" class="link">github.com/KwanFam26022005/meter-reading-pipeline-visualizer</text>
  </g>
<g transform="translate(490 72)">
    <rect width="446" height="122" rx="12" class="card" stroke="#1e293b"/>
    <line x1="0" y1="14" x2="0" y2="108" stroke="#8b5cf6" stroke-width="3.5" stroke-linecap="round"/>
    <text x="20" y="28" class="project-title">MEDICAL NLU PIPELINE</text>
    <rect x="356" y="14" width="74" height="18" rx="9" fill="#8b5cf622" stroke="#8b5cf655"/>
    <text x="393" y="27" text-anchor="middle" font-size="9" font-weight="700" fill="#8b5cf6">AGENTIC</text>
    <text x="20" y="50" class="meta">Jupyter Notebook · ★ 0</text>
    <text x="20" y="75" class="desc">Clinical NLU pipeline for medical entity extraction and cla…</text>
    <text x="20" y="100" class="link">github.com/KwanFam26022005/Medical-NLU-Pipeline</text>
  </g>
<g transform="translate(490 208)">
    <rect width="446" height="122" rx="12" class="card" stroke="#1e293b"/>
    <line x1="0" y1="14" x2="0" y2="108" stroke="#8b5cf6" stroke-width="3.5" stroke-linecap="round"/>
    <text x="20" y="28" class="project-title">TDTU STUDENT HANDBOOK CHATBOT</text>
    <rect x="356" y="14" width="74" height="18" rx="9" fill="#8b5cf622" stroke="#8b5cf655"/>
    <text x="393" y="27" text-anchor="middle" font-size="9" font-weight="700" fill="#8b5cf6">AGENTIC</text>
    <text x="20" y="50" class="meta">Python · ★ 0</text>
    <text x="20" y="75" class="desc">Domain-specific student handbook assistant with retrieval-a…</text>
    <text x="20" y="100" class="link">github.com/KwanFam26022005/tdtu-student-handbook-chatbot</text>
  </g>
<g transform="translate(490 344)">
    <rect width="446" height="122" rx="12" class="card" stroke="#1e293b"/>
    <line x1="0" y1="14" x2="0" y2="108" stroke="#8b5cf6" stroke-width="3.5" stroke-linecap="round"/>
    <text x="20" y="28" class="project-title">FIM / APRIORI DASHBOARD</text>
    <rect x="356" y="14" width="74" height="18" rx="9" fill="#8b5cf622" stroke="#8b5cf655"/>
    <text x="393" y="27" text-anchor="middle" font-size="9" font-weight="700" fill="#8b5cf6">AGENTIC</text>
    <text x="20" y="50" class="meta">PHP · ★ 0</text>
    <text x="20" y="75" class="desc">Interactive web dashboard for Apriori mining, pruning analy…</text>
    <text x="20" y="100" class="link">github.com/KwanFam26022005/Interactive-Web-Dashboard-for-Frequent-Itemset-Mining-and-Apriori-Pruning-Analysis</text>
  </g>
</svg>