<svg xmlns="http://www.w3.org/2000/svg" width="960" height="245" viewBox="0 0 960 245" role="img" aria-label="Research focus terminal">
<style>.bg{fill:#071018}.panel{fill:#0a151e;stroke:#1d3545}.mono{font-family:ui-monospace,SFMono-Regular,Menlo,Consolas,monospace}.k{fill:#6be2ff;font-size:12px;font-weight:700}.t{fill:#eaf8ff;font-size:14px}.m{fill:#7593a6;font-size:11px}.bar{fill:#173040}.on{fill:#55d9ff}.blink{animation:b 1.2s steps(1) infinite}@keyframes b{50%{opacity:.25}}</style><rect width="960" height="245" rx="20" class="bg"/><rect x="20" y="20" width="920" height="205" rx="15" class="panel"/><circle cx="45" cy="43" r="4" fill="#33505e"/><circle cx="60" cy="43" r="4" fill="#33505e"/><circle cx="75" cy="43" r="4" fill="#55d9ff"/><text x="42" y="78" class="mono k">$ researchctl status --active</text><text x="42" y="108" class="mono t">computer_vision / ocr</text><rect x="300" y="97" width="210" height="10" rx="5" class="bar"/><rect x="300" y="97" width="184" height="10" rx="5" class="on"/><text x="540" y="108" class="mono m">PRODUCTION PIPELINES</text><text x="42" y="143" class="mono t">agentic_rag / nlp</text><rect x="300" y="132" width="210" height="10" rx="5" class="bar"/><rect x="300" y="132" width="158" height="10" rx="5" class="on"/><text x="540" y="143" class="mono m">EVIDENCE + VERIFICATION</text><text x="42" y="178" class="mono t">data_mining / visualization</text><rect x="300" y="167" width="210" height="10" rx="5" class="bar"/><rect x="300" y="167" width="132" height="10" rx="5" class="on"/><text x="540" y="178" class="mono m">APRIORI + EXPERIMENTS</text><text x="42" y="208" class="mono k">READY</text><rect x="95" y="198" width="8" height="12" class="on blink"/></svg>
